<?xml version="1.0" standalone="no"?>
<!DOCTYPE svg PUBLIC "-//W3C//DTD SVG 20010904//EN"
 "http://www.w3.org/TR/2001/REC-SVG-20010904/DTD/svg10.dtd">
<svg version="1.0" xmlns="http://www.w3.org/2000/svg"
 width="450.000000pt" height="441.000000pt" viewBox="0 0 450.000000 441.000000"
 preserveAspectRatio="xMidYMid meet">
<metadata>
Created by potrace 1.15, written by Peter Selinger 2001-2017
</metadata>
<g transform="translate(0.000000,441.000000) scale(0.100000,-0.100000)"
fill="#000000" stroke="none">
<path d="M1520 3493 c0 -271 1 -285 18 -271 9 8 69 58 134 112 l116 97 2 174
1 175 -136 0 -135 0 0 -287z"/>
<path d="M2228 3732 c-9 -4 -128 -102 -265 -218 -1197 -1015 -1103 -932 -1103
-969 0 -37 28 -65 66 -65 14 0 113 77 270 211 137 116 312 265 389 330 77 64
257 217 400 338 143 121 263 220 267 218 8 -2 277 -229 961 -809 220 -187 346
-288 361 -288 38 0 66 28 66 65 0 31 -14 45 -222 222 -122 103 -377 320 -567
481 -190 161 -395 335 -456 386 -112 95 -137 110 -167 98z"/>
<path d="M1745 3083 c-275 -233 -518 -440 -540 -459 l-40 -34 1085 0 c624 0
1080 4 1075 9 -10 9 -137 117 -747 634 -180 152 -328 277 -330 276 -2 0 -228
-192 -503 -426z"/>
<path d="M1150 1775 l0 -765 -575 0 -575 0 0 -505 0 -505 2250 0 2250 0 0 505
0 505 -575 0 -575 0 0 765 0 765 -1100 0 -1100 0 0 -765z m2090 -15 l0 -650
-180 0 -180 0 0 170 c0 129 -3 170 -12 170 -7 1 -58 2 -113 3 l-100 2 -6 205
c-3 113 -6 206 -7 208 -6 8 -31 0 -36 -13 -3 -8 -10 -15 -16 -15 -5 0 -10 7
-10 15 0 8 -7 15 -15 15 -8 0 -15 -7 -15 -15 0 -8 -7 -15 -15 -15 -8 0 -15 7
-15 15 0 8 -7 15 -15 15 -8 0 -15 -7 -15 -15 0 -8 -4 -15 -10 -15 -5 0 -10 7
-10 15 0 8 -9 15 -20 15 -11 0 -20 -7 -20 -15 0 -8 -4 -15 -10 -15 -5 0 -10 7
-10 15 0 8 -7 15 -15 15 -8 0 -15 -7 -15 -15 0 -8 -7 -15 -15 -15 -8 0 -15 7
-15 15 0 8 -7 15 -15 15 -8 0 -15 -7 -15 -16 0 -9 -6 -14 -12 -11 -7 2 -12 10
-11 16 2 6 -6 11 -17 11 -11 0 -20 -7 -20 -15 0 -8 -4 -15 -10 -15 -5 0 -10 7
-10 15 0 8 -9 15 -20 15 -11 0 -20 -7 -20 -15 0 -8 -4 -15 -10 -15 -5 0 -10 7
-10 15 0 8 -7 15 -15 15 -8 0 -15 -7 -15 -15 0 -8 -7 -15 -15 -15 -8 0 -15 7
-15 15 0 8 -7 15 -15 15 -8 0 -15 -7 -15 -15 0 -8 -4 -15 -10 -15 -5 0 -10 7
-10 15 0 8 -9 15 -20 15 -11 0 -20 -7 -20 -15 0 -8 -4 -15 -10 -15 -5 0 -10 7
-10 15 0 8 -6 15 -14 15 -8 0 -16 -7 -20 -15 -3 -8 -10 -15 -16 -15 -5 0 -10
7 -10 15 0 8 -7 15 -15 15 -8 0 -15 -7 -15 -15 0 -8 -7 -15 -15 -15 -8 0 -15
7 -15 15 0 8 -6 15 -14 15 -14 0 -26 -29 -26 -67 0 -19 -6 -23 -29 -23 -16 0
-34 7 -41 15 -7 8 -25 15 -41 15 -15 0 -34 -7 -43 -15 -8 -8 -32 -15 -53 -15
-22 0 -44 -5 -51 -12 -9 -9 -12 -97 -12 -335 l0 -323 -160 0 -160 0 0 650 0
650 990 0 990 0 0 -650z m-1540 -45 c16 -20 64 -19 80 1 8 8 25 14 39 12 l26
-3 6 -200 c3 -110 6 -201 7 -202 7 -10 32 0 32 12 0 8 7 15 15 15 8 0 15 -7
15 -15 0 -8 7 -15 15 -15 8 0 15 7 15 15 0 8 7 15 15 15 8 0 15 -7 15 -15 0
-8 7 -15 15 -15 8 0 15 7 15 15 0 8 5 15 10 15 6 0 10 -7 10 -15 0 -8 9 -15
20 -15 11 0 20 7 20 15 0 8 5 15 10 15 6 0 10 -7 10 -15 0 -8 7 -15 15 -15 8
0 15 7 15 15 0 8 7 15 15 15 8 0 15 -7 15 -15 0 -8 7 -15 15 -15 8 0 15 7 15
15 0 8 4 15 9 15 5 0 11 -7 15 -15 3 -8 12 -15 21 -15 8 0 15 7 15 15 0 8 5
15 10 15 6 0 10 -7 10 -15 0 -8 7 -15 15 -15 8 0 15 7 15 15 0 8 7 15 15 15 8
0 15 -7 15 -15 0 -8 7 -15 15 -15 8 0 15 7 15 15 0 8 7 15 15 15 8 0 15 -7 15
-15 0 -8 7 -15 15 -15 8 0 15 7 15 15 0 8 4 15 9 15 5 0 11 -7 15 -15 3 -8 12
-15 21 -15 8 0 15 7 15 15 0 8 5 15 10 15 6 0 10 -7 10 -15 0 -8 7 -15 15 -15
8 0 15 7 15 15 0 8 7 15 15 15 8 0 15 -7 15 -15 0 -8 7 -15 15 -15 8 0 15 7
15 15 0 8 7 15 15 15 8 0 15 -7 15 -15 0 -8 6 -15 14 -15 14 0 26 29 26 68 0
21 3 22 95 22 l95 0 0 -150 0 -150 -605 0 -605 0 0 310 0 310 29 0 c16 0 34
-7 41 -15z"/>
</g>
</svg>
