<svg xmlns="http://www.w3.org/2000/svg" xmlns:xlink="http://www.w3.org/1999/xlink" version="1.1" x="0px" y="0px" viewBox="0 0 100 125" enable-background="new 0 0 100 100" xml:space="preserve"><circle cx="47.41" cy="39.508" r="3.114"/><path d="M47.41,42.878c-1.858,0-3.37-1.512-3.37-3.37c0-1.858,1.512-3.37,3.37-3.37c1.858,0,3.369,1.512,3.369,3.37  C50.779,41.366,49.268,42.878,47.41,42.878z M47.41,36.65c-1.576,0-2.858,1.282-2.858,2.858c0,1.576,1.282,2.858,2.858,2.858  c1.576,0,2.857-1.282,2.857-2.858C50.268,37.932,48.986,36.65,47.41,36.65z"/><ellipse transform="matrix(0.0033 -1 1 0.0033 26.6466 67.7029)" cx="47.287" cy="20.484" rx="14.803" ry="3.157"/><path d="M47.24,35.543h-0.003c-2.216-0.007-3.387-7.77-3.363-15.07c0.024-7.294,1.245-15.047,3.459-15.047  c1.255,0.004,2.036,2.474,2.471,4.546c0.59,2.815,0.909,6.553,0.896,10.524C50.676,27.79,49.455,35.543,47.24,35.543z M47.334,5.937  c-1.373,0-2.92,5.97-2.949,14.538c-0.028,8.573,1.481,14.552,2.853,14.557l0.001,0.256v-0.256c1.372,0,2.92-5.97,2.948-14.538  c0.013-3.937-0.301-7.636-0.885-10.417C48.663,7.027,47.867,5.939,47.334,5.937z"/><ellipse transform="matrix(-0.8754 -0.4834 0.4834 -0.8754 95.8984 123.0714)" cx="63.811" cy="49.176" rx="14.803" ry="3.158"/><path d="M75.354,57.105c-2.579,0-7.758-1.939-13.192-4.941c-3.477-1.919-6.588-4.015-8.76-5.9c-1.6-1.388-3.378-3.271-2.772-4.368  c0.237-0.431,0.789-0.65,1.64-0.65c2.579,0,7.758,1.939,13.193,4.94c3.477,1.92,6.588,4.016,8.76,5.901  c1.599,1.388,3.378,3.271,2.771,4.368C76.756,56.887,76.204,57.105,75.354,57.105z M52.269,41.758c-0.641,0-1.053,0.133-1.192,0.385  c-0.257,0.466,0.307,1.692,2.66,3.734c2.146,1.862,5.227,3.936,8.673,5.839c5.282,2.917,10.483,4.877,12.944,4.877  c0.641,0,1.053-0.134,1.192-0.386c0.257-0.466-0.307-1.691-2.66-3.733c-2.146-1.862-5.226-3.936-8.672-5.839  C59.932,43.718,54.729,41.758,52.269,41.758z"/><ellipse transform="matrix(-0.8469 0.5318 -0.5318 -0.8469 82.7735 75.0766)" cx="30.578" cy="49.456" rx="14.804" ry="3.157"/><path d="M19.243,58.027c-0.707,0-1.184-0.189-1.419-0.563c-1.178-1.876,4.756-7.016,10.938-10.898  c5.413-3.398,10.697-5.682,13.149-5.682c0.707,0,1.185,0.19,1.419,0.563c1.178,1.877-4.756,7.016-10.939,10.898  C26.979,55.744,21.695,58.027,19.243,58.027z M41.912,41.396c-2.364,0-7.539,2.252-12.876,5.604  c-7.26,4.56-11.507,9.031-10.777,10.193c0.168,0.267,0.628,0.323,0.985,0.323c2.363,0,7.538-2.252,12.876-5.604  c7.26-4.559,11.507-9.03,10.778-10.192C42.729,41.452,42.269,41.396,41.912,41.396z"/><polygon points="48.512,44.268 45.88,44.268 43.25,94.26 51.143,94.26 "/><path d="M51.412,94.516H42.98l2.657-50.503h3.118L51.412,94.516z M43.52,94.004h7.354l-2.604-49.48h-2.147L43.52,94.004z"/></svg>